<mxfile host="app.diagrams.net" agent="Mozilla/5.0 (Macintosh; Intel Mac OS X 10_15_7) AppleWebKit/537.36 (KHTML, like Gecko) Chrome/130.0.0.0 Safari/537.36" version="25.0.3">
  <diagram name="Strona-1" id="f1BU3G49COijN7wMqGKt">
    <mxGraphModel dx="705" dy="641" grid="1" gridSize="10" guides="1" tooltips="1" connect="1" arrows="1" fold="1" page="1" pageScale="1" pageWidth="827" pageHeight="1169" math="0" shadow="0">
      <root>
        <mxCell id="0" />
        <mxCell id="1" parent="0" />
        <mxCell id="UhTO1q6loIO7jNNLf-8G-6" value="" style="rounded=1;whiteSpace=wrap;html=1;fillColor=#ffe6cc;strokeColor=#d79b00;" vertex="1" parent="1">
          <mxGeometry x="36" y="240" width="20" height="430" as="geometry" />
        </mxCell>
        <mxCell id="UhTO1q6loIO7jNNLf-8G-7" value="&lt;b&gt;HELPS&lt;/b&gt;" style="text;html=1;align=center;verticalAlign=middle;whiteSpace=wrap;rounded=0;" vertex="1" parent="1">
          <mxGeometry x="16" y="210" width="60" height="30" as="geometry" />
        </mxCell>
        <mxCell id="UhTO1q6loIO7jNNLf-8G-8" value="&lt;b&gt;Oceniany LLM&lt;/b&gt;" style="text;html=1;align=center;verticalAlign=middle;whiteSpace=wrap;rounded=0;" vertex="1" parent="1">
          <mxGeometry x="180" y="210" width="60" height="30" as="geometry" />
        </mxCell>
        <mxCell id="UhTO1q6loIO7jNNLf-8G-9" value="" style="rounded=1;whiteSpace=wrap;html=1;fillColor=#f5f5f5;strokeColor=#666666;fontColor=#333333;" vertex="1" parent="1">
          <mxGeometry x="200" y="240" width="20" height="70" as="geometry" />
        </mxCell>
        <mxCell id="UhTO1q6loIO7jNNLf-8G-10" value="&lt;b&gt;G-Eval&lt;/b&gt;" style="text;html=1;align=center;verticalAlign=middle;whiteSpace=wrap;rounded=0;" vertex="1" parent="1">
          <mxGeometry x="260" y="210" width="60" height="30" as="geometry" />
        </mxCell>
        <mxCell id="UhTO1q6loIO7jNNLf-8G-11" value="" style="rounded=1;whiteSpace=wrap;html=1;fillColor=#fff2cc;strokeColor=#d6b656;" vertex="1" parent="1">
          <mxGeometry x="280" y="240" width="20" height="360" as="geometry" />
        </mxCell>
        <mxCell id="UhTO1q6loIO7jNNLf-8G-12" value="&lt;b&gt;LLM jako sÄ™dzia&lt;/b&gt;" style="text;html=1;align=center;verticalAlign=middle;whiteSpace=wrap;rounded=0;" vertex="1" parent="1">
          <mxGeometry x="448" y="210" width="60" height="30" as="geometry" />
        </mxCell>
        <mxCell id="UhTO1q6loIO7jNNLf-8G-13" value="" style="rounded=1;whiteSpace=wrap;html=1;fillColor=#dae8fc;strokeColor=#6c8ebf;" vertex="1" parent="1">
          <mxGeometry x="468" y="240" width="20" height="360" as="geometry" />
        </mxCell>
        <mxCell id="UhTO1q6loIO7jNNLf-8G-14" value="" style="endArrow=classic;html=1;rounded=0;entryX=-0.013;entryY=0.152;entryDx=0;entryDy=0;exitX=1.001;exitY=0.026;exitDx=0;exitDy=0;exitPerimeter=0;entryPerimeter=0;" edge="1" parent="1">
          <mxGeometry width="50" height="50" relative="1" as="geometry">
            <mxPoint x="56.01999999999998" y="259.18000000000006" as="sourcePoint" />
            <mxPoint x="199.74" y="258.6400000000001" as="targetPoint" />
          </mxGeometry>
        </mxCell>
        <mxCell id="UhTO1q6loIO7jNNLf-8G-15" value="&lt;font style=&quot;font-size: 11px;&quot;&gt;pyt&lt;/font&gt;" style="edgeLabel;html=1;align=center;verticalAlign=middle;resizable=0;points=[];fontSize=8;" vertex="1" connectable="0" parent="UhTO1q6loIO7jNNLf-8G-14">
          <mxGeometry x="-0.0644" y="1" relative="1" as="geometry">
            <mxPoint as="offset" />
          </mxGeometry>
        </mxCell>
        <mxCell id="UhTO1q6loIO7jNNLf-8G-17" value="" style="endArrow=classic;html=1;rounded=0;entryX=0;entryY=0.25;entryDx=0;entryDy=0;exitX=0.94;exitY=0.211;exitDx=0;exitDy=0;exitPerimeter=0;" edge="1" parent="1" source="UhTO1q6loIO7jNNLf-8G-6" target="UhTO1q6loIO7jNNLf-8G-11">
          <mxGeometry width="50" height="50" relative="1" as="geometry">
            <mxPoint x="60" y="330" as="sourcePoint" />
            <mxPoint x="310" y="360" as="targetPoint" />
          </mxGeometry>
        </mxCell>
        <mxCell id="UhTO1q6loIO7jNNLf-8G-20" value="intro, kryteria, pyt, odp" style="edgeLabel;html=1;align=center;verticalAlign=middle;resizable=0;points=[];" vertex="1" connectable="0" parent="UhTO1q6loIO7jNNLf-8G-17">
          <mxGeometry x="-0.4277" relative="1" as="geometry">
            <mxPoint x="40" as="offset" />
          </mxGeometry>
        </mxCell>
        <mxCell id="UhTO1q6loIO7jNNLf-8G-18" value="" style="endArrow=classic;html=1;rounded=0;exitX=0;exitY=0.75;exitDx=0;exitDy=0;entryX=0.99;entryY=0.123;entryDx=0;entryDy=0;entryPerimeter=0;" edge="1" parent="1" source="UhTO1q6loIO7jNNLf-8G-9" target="UhTO1q6loIO7jNNLf-8G-6">
          <mxGeometry width="50" height="50" relative="1" as="geometry">
            <mxPoint x="260" y="410" as="sourcePoint" />
            <mxPoint x="70" y="293" as="targetPoint" />
          </mxGeometry>
        </mxCell>
        <mxCell id="UhTO1q6loIO7jNNLf-8G-19" value="odp" style="edgeLabel;html=1;align=center;verticalAlign=middle;resizable=0;points=[];" vertex="1" connectable="0" parent="UhTO1q6loIO7jNNLf-8G-18">
          <mxGeometry x="-0.264" y="1" relative="1" as="geometry">
            <mxPoint as="offset" />
          </mxGeometry>
        </mxCell>
        <mxCell id="UhTO1q6loIO7jNNLf-8G-21" value="" style="endArrow=classic;html=1;rounded=0;exitX=1.076;exitY=0.334;exitDx=0;exitDy=0;exitPerimeter=0;entryX=-0.114;entryY=0.334;entryDx=0;entryDy=0;entryPerimeter=0;" edge="1" parent="1" source="UhTO1q6loIO7jNNLf-8G-11" target="UhTO1q6loIO7jNNLf-8G-13">
          <mxGeometry width="50" height="50" relative="1" as="geometry">
            <mxPoint x="280" y="410" as="sourcePoint" />
            <mxPoint x="330" y="360" as="targetPoint" />
          </mxGeometry>
        </mxCell>
        <mxCell id="UhTO1q6loIO7jNNLf-8G-22" value="intro, kryteria" style="edgeLabel;html=1;align=center;verticalAlign=middle;resizable=0;points=[];" vertex="1" connectable="0" parent="UhTO1q6loIO7jNNLf-8G-21">
          <mxGeometry x="-0.3147" relative="1" as="geometry">
            <mxPoint x="22" as="offset" />
          </mxGeometry>
        </mxCell>
        <mxCell id="UhTO1q6loIO7jNNLf-8G-23" value="" style="endArrow=classic;html=1;rounded=0;exitX=-0.09;exitY=0.417;exitDx=0;exitDy=0;exitPerimeter=0;entryX=1.076;entryY=0.417;entryDx=0;entryDy=0;entryPerimeter=0;" edge="1" parent="1" source="UhTO1q6loIO7jNNLf-8G-13" target="UhTO1q6loIO7jNNLf-8G-11">
          <mxGeometry width="50" height="50" relative="1" as="geometry">
            <mxPoint x="280" y="410" as="sourcePoint" />
            <mxPoint x="330" y="360" as="targetPoint" />
          </mxGeometry>
        </mxCell>
        <mxCell id="UhTO1q6loIO7jNNLf-8G-24" value="kroki" style="edgeLabel;html=1;align=center;verticalAlign=middle;resizable=0;points=[];" vertex="1" connectable="0" parent="UhTO1q6loIO7jNNLf-8G-23">
          <mxGeometry x="0.0941" y="1" relative="1" as="geometry">
            <mxPoint as="offset" />
          </mxGeometry>
        </mxCell>
        <mxCell id="UhTO1q6loIO7jNNLf-8G-25" value="" style="endArrow=classic;html=1;rounded=0;exitX=1;exitY=0.5;exitDx=0;exitDy=0;entryX=0;entryY=0.5;entryDx=0;entryDy=0;" edge="1" parent="1" source="UhTO1q6loIO7jNNLf-8G-11" target="UhTO1q6loIO7jNNLf-8G-13">
          <mxGeometry width="50" height="50" relative="1" as="geometry">
            <mxPoint x="270" y="420" as="sourcePoint" />
            <mxPoint x="320" y="370" as="targetPoint" />
          </mxGeometry>
        </mxCell>
        <mxCell id="UhTO1q6loIO7jNNLf-8G-26" value="intro, kryteria, kroki, pyt, odp" style="edgeLabel;html=1;align=center;verticalAlign=middle;resizable=0;points=[];" vertex="1" connectable="0" parent="UhTO1q6loIO7jNNLf-8G-25">
          <mxGeometry x="0.0726" y="1" relative="1" as="geometry">
            <mxPoint x="-10" y="1" as="offset" />
          </mxGeometry>
        </mxCell>
        <mxCell id="UhTO1q6loIO7jNNLf-8G-27" value="" style="endArrow=classic;html=1;rounded=0;exitX=-0.11;exitY=0.669;exitDx=0;exitDy=0;exitPerimeter=0;entryX=1.1;entryY=0.67;entryDx=0;entryDy=0;entryPerimeter=0;" edge="1" parent="1" source="UhTO1q6loIO7jNNLf-8G-13" target="UhTO1q6loIO7jNNLf-8G-11">
          <mxGeometry width="50" height="50" relative="1" as="geometry">
            <mxPoint x="270" y="420" as="sourcePoint" />
            <mxPoint x="320" y="370" as="targetPoint" />
          </mxGeometry>
        </mxCell>
        <mxCell id="UhTO1q6loIO7jNNLf-8G-28" value="Wyniki do normalizacji:&lt;div&gt;P, A, Z&lt;/div&gt;" style="edgeLabel;html=1;align=center;verticalAlign=middle;resizable=0;points=[];labelBackgroundColor=none;" vertex="1" connectable="0" parent="UhTO1q6loIO7jNNLf-8G-27">
          <mxGeometry x="0.0871" relative="1" as="geometry">
            <mxPoint x="3" y="-1" as="offset" />
          </mxGeometry>
        </mxCell>
        <mxCell id="UhTO1q6loIO7jNNLf-8G-30" value="" style="endArrow=classic;html=1;rounded=0;exitX=-0.043;exitY=0.944;exitDx=0;exitDy=0;exitPerimeter=0;entryX=1.062;entryY=0.791;entryDx=0;entryDy=0;entryPerimeter=0;" edge="1" parent="1" source="UhTO1q6loIO7jNNLf-8G-11" target="UhTO1q6loIO7jNNLf-8G-6">
          <mxGeometry width="50" height="50" relative="1" as="geometry">
            <mxPoint x="270" y="420" as="sourcePoint" />
            <mxPoint x="70" y="580" as="targetPoint" />
          </mxGeometry>
        </mxCell>
        <mxCell id="UhTO1q6loIO7jNNLf-8G-31" value="Znormalizowane wyniki:&lt;div&gt;P, A, Z&lt;/div&gt;" style="edgeLabel;html=1;align=center;verticalAlign=middle;resizable=0;points=[];labelBackgroundColor=none;" vertex="1" connectable="0" parent="UhTO1q6loIO7jNNLf-8G-30">
          <mxGeometry x="0.1599" relative="1" as="geometry">
            <mxPoint x="10" as="offset" />
          </mxGeometry>
        </mxCell>
        <mxCell id="UhTO1q6loIO7jNNLf-8G-32" value="" style="endArrow=classic;html=1;rounded=0;entryX=1.052;entryY=0.888;entryDx=0;entryDy=0;entryPerimeter=0;" edge="1" parent="1" target="UhTO1q6loIO7jNNLf-8G-11">
          <mxGeometry width="50" height="50" relative="1" as="geometry">
            <mxPoint x="300" y="520" as="sourcePoint" />
            <mxPoint x="350" y="470" as="targetPoint" />
            <Array as="points">
              <mxPoint x="380" y="520" />
              <mxPoint x="380" y="560" />
            </Array>
          </mxGeometry>
        </mxCell>
        <mxCell id="UhTO1q6loIO7jNNLf-8G-33" value="Normalizacja wynikÃ³w" style="edgeLabel;html=1;align=center;verticalAlign=middle;resizable=0;points=[];" vertex="1" connectable="0" parent="UhTO1q6loIO7jNNLf-8G-32">
          <mxGeometry x="-0.0825" relative="1" as="geometry">
            <mxPoint y="9" as="offset" />
          </mxGeometry>
        </mxCell>
        <mxCell id="UhTO1q6loIO7jNNLf-8G-34" value="&lt;div&gt;LEGENDA:&lt;/div&gt;pyt - pytanie/problem z datasetu&lt;div&gt;odp - wygenerowana odpowiedÅº&lt;/div&gt;&lt;div&gt;intro - wprowadzenie do zadania (patrz G-Eval)&lt;/div&gt;&lt;div&gt;kryteria - kryteria oceny wygenerowanej treÅ›ci (patrz G-Eval)&lt;/div&gt;&lt;div&gt;kroki - wygenerowane podczas auto CoT kroki ewaluacyjne (patrz G-Eval)&lt;/div&gt;&lt;div&gt;&lt;br&gt;&lt;/div&gt;" style="text;html=1;align=left;verticalAlign=middle;whiteSpace=wrap;rounded=0;fontSize=8;" vertex="1" parent="1">
          <mxGeometry x="240" y="663" width="284" height="30" as="geometry" />
        </mxCell>
        <mxCell id="UhTO1q6loIO7jNNLf-8G-35" value="" style="endArrow=classic;html=1;rounded=0;exitX=1.036;exitY=0.861;exitDx=0;exitDy=0;exitPerimeter=0;" edge="1" parent="1" source="UhTO1q6loIO7jNNLf-8G-6">
          <mxGeometry width="50" height="50" relative="1" as="geometry">
            <mxPoint x="109.72" y="623" as="sourcePoint" />
            <mxPoint x="57" y="650" as="targetPoint" />
            <Array as="points">
              <mxPoint x="160" y="610" />
              <mxPoint x="160" y="650" />
            </Array>
          </mxGeometry>
        </mxCell>
        <mxCell id="UhTO1q6loIO7jNNLf-8G-36" value="Obliczenie wyniku waÅ¼onego" style="edgeLabel;html=1;align=center;verticalAlign=middle;resizable=0;points=[];" vertex="1" connectable="0" parent="UhTO1q6loIO7jNNLf-8G-35">
          <mxGeometry x="0.41" y="-1" relative="1" as="geometry">
            <mxPoint x="30" y="-19" as="offset" />
          </mxGeometry>
        </mxCell>
      </root>
    </mxGraphModel>
  </diagram>
</mxfile>
